<?xml version="1.0" encoding="UTF-8"?>
<svg id="_レイヤー_2" data-name="レイヤー 2" xmlns="http://www.w3.org/2000/svg" viewBox="0 0 294 234.5">
  <defs>
    <style>
      .cls-1 {
        fill: #ff6302;
      }
    </style>
  </defs>
  <g id="_レイヤー_1-2" data-name="レイヤー 1">
    <g>
      <polygon class="cls-1" points="107.25 42.43 125.79 60.96 79.5 107.25 121.93 107.25 147 82.18 172.07 107.25 214.5 107.25 168.21 60.96 186.75 42.43 251.57 107.25 294 107.25 186.75 0 147 39.75 107.25 0 0 107.25 42.43 107.25 107.25 42.43"/>
      <polygon class="cls-1" points="186.75 192.07 168.21 173.54 214.5 127.25 172.07 127.25 147 152.32 121.93 127.25 79.5 127.25 125.79 173.54 107.25 192.07 42.43 127.25 0 127.25 107.25 234.5 147 194.75 186.75 234.5 294 127.25 251.57 127.25 186.75 192.07"/>
    </g>
  </g>
</svg>